<svg height='100px' width='100px'  fill="#000000" xmlns="http://www.w3.org/2000/svg" xmlns:xlink="http://www.w3.org/1999/xlink" xmlns:sketch="http://www.bohemiancoding.com/sketch/ns" viewBox="0 0 100 100" version="1.1" x="0px" y="0px"><title>Hollow</title><description>Created with Sketch (http://www.bohemiancoding.com/sketch)</description><g stroke="none" stroke-width="1" fill="none" fill-rule="evenodd" sketch:type="MSPage"><g sketch:type="MSArtboardGroup"><path d="M95,50 C95,75 75,95 50,95 C25,95 5,75 5,50 C5,25 25,5 50,5 C75,5 95,25 95,50 Z" stroke="#000000" stroke-width="10" sketch:type="MSShapeGroup"></path><path d="M32.9312614,55.3085714 L32.9312614,76 L50.7370996,76 C65.0861267,76 75,64.8528571 75,50.4271429 C75,36.0014286 65.0861267,25 50.7370996,25 L32.9312614,25 L32.9312614,45.4 L26,45.4 L26,55.3085714 L32.9312614,55.3085714 Z M42,45.3578199 L42,35 L50.0180723,35 C58.3674699,35 64,41.3909953 64,50.5734597 C64,59.7559242 58.3674699,66 50.0180723,66 L42,66 L42,55.3483412 L52.0722892,55.3483412 L52.0722892,45.3578199 L42,45.3578199 Z" fill="#000000" sketch:type="MSShapeGroup"></path></g></g></svg>